<svg width="2180" height="420" viewBox="0 0 2180 420" fill="none" xmlns="http://www.w3.org/2000/svg">
<path d="M0 70.2092C0 31.4337 31.4337 0 70.2092 0H926.278C965.053 0 996.487 31.4337 996.487 70.2092V349.791C996.487 388.566 965.053 420 926.278 420H70.2093C31.4338 420 0 388.566 0 349.791V70.2092Z" fill="#FFB011"/>
<path d="M207.101 315.411C150.979 315 105.312 268.736 105.312 212.24V207.573C105.312 151.787 150.457 105.56 205.944 104.552C206.653 104.552 207.363 104.552 208.109 104.552C244.217 104.552 278.085 123.969 296.493 155.26L300.264 161.719L258.332 186.326L254.598 179.717C245.673 163.885 228.87 154.027 210.723 154.027H205.122C177.341 154.027 154.751 176.543 154.751 204.212V215.601C154.751 243.382 177.341 265.973 205.122 265.973H211.657C232.343 265.525 249.333 248.012 249.333 226.99V226.131L197.468 243.307V190.994H298.958V315.448H249.333V306.711C236.45 312.461 222.411 315.448 208.147 315.448H207.101V315.411Z" fill="white"/>
<path d="M417.821 315.411C361.251 315.411 315.21 269.371 315.21 212.801V207.2C315.21 150.592 361.251 104.552 417.821 104.552C474.391 104.552 520.244 150.592 520.244 207.162V212.763C520.244 269.333 474.279 315.373 417.821 315.373V315.411ZM415.02 154.027C387.239 154.027 364.649 176.618 364.649 204.399V215.601C364.649 243.382 387.239 265.973 415.02 265.973H420.434C448.215 265.973 470.806 243.382 470.806 215.601V204.399C470.806 176.618 448.215 154.027 420.434 154.027H415.02Z" fill="white"/>
<path d="M535.177 315.411V104.552H584.615V281.767L688.346 264.628V315.411H535.177Z" fill="white"/>
<path d="M703.279 315.411V104.552H785.763C813.992 104.552 840.429 115.455 860.256 135.283C880.196 155.222 891.174 181.734 891.174 209.963C891.174 268.101 843.901 315.373 785.763 315.373H703.279V315.411ZM787.406 265.935C817.241 265.935 841.512 241.59 841.512 211.643V208.282C841.512 178.336 817.241 153.99 787.406 153.99H752.717V265.935H787.406Z" fill="white"/>
<path d="M1266.21 113.943H1308.29V306.057H1274.44V177.981L1219.55 299.287L1216.44 306.057H1185.34L1182.22 299.287L1127.34 177.981V306.057H1093.49V113.943H1135.57L1200.89 258.12L1266.21 113.943Z" fill="black"/>
<path d="M1376.98 113.943H1417.23L1474.86 306.057H1439.55L1431.13 277.697V277.88H1363.25V277.697L1354.84 306.057H1319.34L1376.98 113.943ZM1367.64 263.06L1421.99 247.691L1397.1 164.807L1367.64 263.06Z" fill="black"/>
<path d="M1655.47 178.896C1655.47 213.293 1628.76 241.47 1594.91 243.666L1643.76 306.057H1600.76L1525.57 210H1590.34C1607.53 210 1621.44 196.095 1621.44 178.896C1621.44 161.697 1607.53 147.792 1590.34 147.792H1519.71V306.057H1485.86V113.943H1590.34C1608.27 113.943 1624.55 121.262 1636.26 132.971C1648.15 144.681 1655.47 160.965 1655.47 178.896Z" fill="black"/>
<path d="M1837.22 113.943L1771.35 206.341L1842.53 306.057H1800.99L1750.68 235.432L1707.68 295.628L1700.36 306.057H1673.83V113.943H1707.68V237.262L1729.82 206.341L1795.69 113.943H1837.22Z" fill="black"/>
<path d="M1853.58 113.943H2006.17V147.792H1887.43V221.344L1983.67 204.328V238.177H1887.43V272.208H2006.17V306.057H1853.58V113.943Z" fill="black"/>
<path d="M2179.05 113.943V147.792H2116.84V306.057H2082.99V147.792H2020.78V113.943H2179.05Z" fill="black"/>
</svg>
