<svg width="420" height="420" viewBox="0 0 420 420" fill="none" xmlns="http://www.w3.org/2000/svg">
<path d="M0 70.2092C0 31.4337 31.4337 0 70.2092 0H349.791C388.566 0 420 31.4337 420 70.2092V349.791C420 388.566 388.566 420 349.791 420H70.2093C31.4338 420 0 388.566 0 349.791V70.2092Z" fill="#FFB011"/>
<path d="M207.101 315.411C150.979 315 105.312 268.736 105.312 212.24V207.573C105.312 151.787 150.457 105.56 205.944 104.552C206.653 104.552 207.363 104.552 208.109 104.552C244.217 104.552 278.085 123.969 296.493 155.26L300.264 161.719L258.332 186.326L254.598 179.717C245.673 163.885 228.87 154.027 210.723 154.027H205.122C177.341 154.027 154.751 176.543 154.751 204.212V215.601C154.751 243.382 177.341 265.973 205.122 265.973H211.657C232.343 265.525 249.333 248.012 249.333 226.99V226.131L197.468 243.307V190.994H298.958V315.448H249.333V306.711C236.45 312.461 222.411 315.448 208.147 315.448H207.101V315.411Z" fill="white"/>
</svg>
